# xmcd
#
# Track frame offsets: 
#        150
#        10960
#        24528
#        34061
#        41987
#        51928
#        60586
#        73468
#        83273
#        95742
#        105333
#        111827
#        119669
#        129002
#        138071
#        147361
#        158338
#        168903
#        181626
#        192052
#        203329
#        216064
#        226504
#        237087
#        248293
#        259017
#        269399
#        278844
#        287019
#        298626
#        310172
#        323301
#
# Disc length: 4463 seconds
#
# Revision: 0
# Processed by: cddbd v1.5.2PL0 Copyright (c) Steve Scherf et al.
# Submitted via: ExactAudioCopyFreeDBPlugin 1.0
#
DISCID=a7116d20
DTITLE=Various Artist - The Bakersfield Sound: Country Music Capitol 
DTITLE=Of The West 1940-1974
DYEAR=2019
DGENRE=Country
TTITLE0=Reuben Chapman with Coy Baker and His Band - I'm Sorry Too
TTITLE1=Don Thompson with Coy Baker and His Band - Empty Days And Lonely
TTITLE1=Nights
TTITLE2=Phil Brown - You're A Luxury
TTITLE3=Unknown, possibly Skeets McDonald - Steady Lovin'
TTITLE4=Johnny Bond - I Like That Kind
TTITLE5=Henry Sharp - Crazy Moon
TTITLE6=Gene Martin with The Desert Stars - Pair Of Empty Arms
TTITLE7=Herb Henson - You'al Come
TTITLE8=Lewis Talley - Letters Have No Arms
TTITLE9=Buck Owens - Second Fiddle
TTITLE10=Billy Mize and Cliff Crofford - When
TTITLE11=Billy Mize - You Can't Take Your Love Outta This Boy
TTITLE12=Billy Kaundart - I Removed Your Ring
TTITLE13=Larry Bryant - Keep Right On Tryin'
TTITLE14=Buck Owens - Tired Of Livin'
TTITLE15=Joe Hall - Cold Hearted Woman
TTITLE16=Owen Charles - Stage Coach
TTITLE17=Rip Goodman and Marcia - If I Could Only Tell You
TTITLE18=George Latta - Our Hearts
TTITLE19=Buck Owens - Til These Dreams Come True
TTITLE20=Billy and Cliff - Living Up To My Name
TTITLE21=Don Markham and The Marksmen - Goose, Pt. 1
TTITLE22=Bonnie Owens - Just For The Children's Sake
TTITLE23=Wally Lewis - My Baby Walks All Over Me
TTITLE24=Wynn Stewart - Playboy
TTITLE25=Al Brumley - Someone's Gonna Get Hurt
TTITLE26=Jackie Kelley - Door Of Temptation
TTITLE27=Jelly Sanders - Fiddlin' Country Style
TTITLE28=Buck Owens and Rose Maddox - Loose Talk
TTITLE29=Jimmy Patton - What Will I Do (With All These Memories)
TTITLE30=Tommy Dee - Loving You (On Someone Elses' Time)
TTITLE31=Custer Bottoms and Jack and Jerry - Why Tell Me
EXTD=
EXTT0=
EXTT1=
EXTT2=
EXTT3=
EXTT4=
EXTT5=
EXTT6=
EXTT7=
EXTT8=
EXTT9=
EXTT10=
EXTT11=
EXTT12=
EXTT13=
EXTT14=
EXTT15=
EXTT16=
EXTT17=
EXTT18=
EXTT19=
EXTT20=
EXTT21=
EXTT22=
EXTT23=
EXTT24=
EXTT25=
EXTT26=
EXTT27=
EXTT28=
EXTT29=
EXTT30=
EXTT31=
PLAYORDER=
